<svg width="317" height="197" viewBox="0 0 317 197" fill="none" xmlns="http://www.w3.org/2000/svg">
<path d="M292.251 71.6293V180.459C292.251 188.945 285.371 195.824 276.885 195.824H28.2363V71.6293C28.2363 56.0733 40.8463 43.464 56.4015 43.464H264.085C279.64 43.464 292.251 56.0733 292.251 71.6293Z" fill="#F0B3C0"/>
<path d="M281.224 147.385C272.417 154.428 266.424 163.931 263.305 174.729C262.775 176.567 260.425 177.212 259.055 175.852C256.211 173.029 253.236 170.869 249.557 169.049C246.455 167.515 242.689 166.353 238.959 165.741C237.623 165.523 235.939 165.357 234.228 165.291C232.54 165.224 230.849 165.251 229.164 165.365C225.829 165.591 222.657 166.16 219.199 167.135C212.469 169.031 206.204 172.152 200.548 176.545C195.287 180.631 190.644 185.921 187.473 192.004C186.825 193.248 186.267 194.527 185.76 195.824H292.251V140.496C288.336 142.409 284.613 144.675 281.224 147.385Z" fill="black"/>
<path d="M96.203 9.94806C100.862 5.16006 109.243 5.76144 114.489 9.89611C119.735 14.0321 122.308 20.7414 123.397 27.3321C124.485 33.9228 124.329 40.6681 125.336 47.2721C126.343 53.8761 128.733 60.6228 133.823 64.9494C141.323 71.3281 153.725 71.7828 158.399 80.4494C160.816 84.9308 160.435 90.6441 163.373 94.8027C166.541 99.2854 172.513 100.592 177.1 103.608C186.529 109.809 188.813 124.545 181.703 133.311C175.873 140.496 164.557 140.411 156.649 135.605C149.787 140.377 140.307 144.409 132.184 142.439C124.061 140.468 116.884 134.889 112.972 127.503C108.543 119.141 108.292 109.056 103.874 100.687C99.6854 92.7534 92.1978 87.1614 86.5744 80.1707C76.7906 68.0081 72.9806 51.2574 76.5411 36.0587C79.1884 24.7561 88.1067 18.2667 96.203 9.94806Z" fill="black"/>
<path d="M49.2506 195.82H171.005C168.349 176.793 166.909 157.575 165.751 138.412C163.908 107.941 146.804 79.7681 114.56 80.8441C91.0121 81.6321 66.3246 93.9214 50.497 111.748C40.8621 122.599 36.5532 136.232 36.287 150.212C36.048 162.809 39.0928 175.688 44.4845 187.064C45.9126 190.077 47.537 192.975 49.2506 195.82Z" fill="#F5B525"/>
<path d="M82.5754 90.9921C86.7396 86.7081 85.6838 56.1175 82.9156 50.8228L101.299 64.7801C102.375 68.7281 103.919 77.6081 107.079 80.2081C108.727 81.5628 110.609 82.9174 112.743 82.8721C111.083 87.5374 106.771 90.9455 102.079 92.5268C97.3869 94.1068 86.7188 93.7015 82.5754 90.9921Z" fill="#DB4222"/>
<path d="M118.072 28.248L119.805 53.6267C119.853 63.0814 110.563 70.368 101.107 70.416C95.0089 70.4467 89.6198 67.2574 86.5381 62.4667C86.5381 62.448 86.5204 62.4307 86.5204 62.4134C84.8277 59.788 83.8574 56.6654 83.8408 53.3254L83.7141 28.4227C83.6902 23.704 85.5944 19.3987 88.6897 16.272C91.8022 13.1467 96.0694 11.1974 100.806 11.1734C110.261 11.1254 118.024 18.8093 118.072 28.248Z" fill="#DB4222"/>
<path d="M294.009 48.3775C292.509 47.4255 290.921 46.5921 289.325 45.8321C290.968 42.4574 292.26 38.6468 287.613 35.6948C284.445 33.6828 279.457 35.1828 275.997 36.6375C281.216 29.1695 293.328 10.7681 288.996 7.25213C284.036 1.53746 275.551 17.9108 271.836 23.8628C266.753 32.0081 259.292 43.7495 254.209 51.8948C252.693 46.3108 252.876 40.3241 252.333 34.6015C251.983 30.9001 251.8 26.5041 249.488 23.4028C246.741 19.7174 241.447 19.8814 239.273 24.1388C238.388 25.8734 238.524 27.9308 238.691 29.8708C240.611 52.1308 243.931 74.2695 248.625 96.1135C249.088 98.2695 249.604 100.507 250.983 102.228C254.251 106.307 260.648 105.693 265.519 103.799C275.98 99.7294 284.244 91.8775 291.704 83.3135C298.457 74.6041 310.656 65.5788 294.009 48.3775Z" fill="#DB4222"/>
<path d="M169.405 191.132L204.672 129.416C204.672 129.416 161.476 73.8174 125.676 84.1268C117.204 86.5668 169.405 191.132 169.405 191.132Z" fill="#F5B525"/>
<path d="M70.058 48.0507C70.0824 52.944 74.0694 56.8907 78.9632 56.8654C83.8564 56.8414 87.8028 52.8534 87.7777 47.9614C87.7528 43.0681 83.7657 39.1214 78.873 39.1454C73.9793 39.1707 70.0329 43.1574 70.058 48.0507Z" fill="#DB4222"/>
<path d="M89.9531 195.82C86.8031 186.889 85.5855 176.58 80.1391 168.793C73.7959 159.723 61.5292 155.264 50.8417 158.145C40.1547 161.027 34.6417 160.056 33.7183 171.085C35.0036 179.497 36.2839 187.867 37.2088 195.82H89.9531Z" fill="#F5B525"/>
<path d="M227.891 102.075C224.264 110.641 219.437 120.839 210.184 121.789C198.853 122.955 191.884 109.423 181.395 104.987C169.905 100.128 155.795 108.203 151.368 119.864C146.94 131.527 150.533 145.017 157.597 155.299C164.66 165.58 174.792 173.287 184.743 180.808C194.955 188.527 207.589 196.672 219.632 192.335C226.909 189.713 231.871 183.103 236.396 176.829C243.799 166.569 251.201 156.309 258.604 146.049C266.987 134.432 275.812 120.873 272.74 106.881C270.388 96.1721 259.835 87.9121 249.293 85.8734C238.121 83.7121 231.991 92.3921 227.891 102.075Z" fill="#F5B525"/>
<path d="M160.652 130.033C173.788 140.119 180.273 158.143 176.576 174.285" stroke="black" stroke-width="1.11833" stroke-miterlimit="10" stroke-linecap="round" stroke-linejoin="round"/>
<path d="M34.7637 175.501C28.1433 178 15.3788 174.332 10.8938 168.859C6.40943 163.385 5.8741 155.016 9.62557 149.016C14.2236 141.661 25.0965 138.243 26.4069 129.668C27.7673 120.765 22.3012 113.725 23.8184 104.848C24.9449 98.2574 31.7236 94.1454 38.2252 92.5854C44.7266 91.0254 51.6512 91.0827 57.8137 88.4894C63.9761 85.8947 69.31 79.2174 67.2105 72.868C65.6913 68.2734 60.8548 65.4427 59.1241 60.924C57.4298 56.5 59.108 51.4654 61.6418 47.464C64.1756 43.4627 67.5506 40.0067 69.747 35.8107C71.787 31.912 72.7198 27.5494 73.9709 23.3321C75.2214 19.1134 76.9006 14.852 80.0569 11.7854C83.2137 8.72138 87.7537 6.92539 92.0793 7.73206C97.8157 8.80006 105.049 14.368 107.308 19.748C104.464 18.4573 97.785 19.092 96.2616 21.8187C94.7381 24.5454 94.7152 27.84 94.9085 30.9587C95.1017 34.076 95.4637 37.2734 94.5913 40.272C93.4006 44.3667 90.1141 47.4547 86.9646 50.3294C85.0064 52.1161 84.7616 54.2734 85.1761 56.892C85.5902 59.5107 87.0793 61.8147 88.496 64.056C89.9126 66.296 91.3272 68.668 91.5637 71.308C92.1558 77.9374 85.3594 83.0574 84.398 89.6427C83.9334 92.8267 85.0064 95.8627 84.1752 98.9707C83.3845 101.925 82.5856 105.975 79.1589 109.216C74.5918 113.536 70.3908 114.957 66.1788 119.111C63.5756 121.677 60.8782 124.307 57.4876 125.675C54.2137 126.995 50.5752 127.023 47.147 127.864C43.7189 128.707 40.1668 130.784 39.3542 134.22C36.0714 148.1 36.1012 161.3 34.7637 175.501Z" fill="black"/>
<path d="M95.2427 9.82556C100.439 11.1082 104.869 15.1483 106.624 20.2043C109.28 18.9456 115.28 19.5482 116.807 22.0589C118.333 24.5709 118.54 27.6389 118.708 30.5722C119.412 42.9176 120.676 56.6029 121.381 68.9482C124.261 55.9616 123.033 42.4376 121.88 29.1856C121.436 24.0896 120.619 18.8229 117.76 14.5815C112.847 7.29488 102.684 5.14956 95.2427 9.82556Z" fill="black"/>
<path d="M96.8953 11.3001C100.608 13.6374 103.835 16.7414 106.315 20.3601" stroke="#DB4222" stroke-width="1.01716" stroke-miterlimit="10" stroke-linecap="round" stroke-linejoin="round"/>
<path d="M99.2983 48.212C99.7635 50.0373 100.35 51.9867 101.218 53.3947C103.787 57.5667 110.62 57.924 112.625 52.9293C113.212 51.4707 113.496 49.852 113.773 48.2546C113.776 48.24 113.777 48.2266 113.78 48.212H99.2983Z" fill="white"/>
<path d="M101.093 50.868C100.721 50.7866 100.35 50.6946 99.9822 50.5853C100.323 51.6146 100.724 52.5933 101.218 53.3947C103.787 57.5667 110.62 57.924 112.625 52.9293C112.98 52.048 113.219 51.1066 113.417 50.148C109.752 52.6773 105.001 52.832 101.093 50.868Z" fill="black"/>
<path d="M100.045 42.0281C100.045 46.4668 99.2098 48.8988 95.3677 50.8428" stroke="black" stroke-width="0.809432" stroke-miterlimit="10" stroke-linecap="round" stroke-linejoin="round"/>
<path d="M93.997 11.2668C87.587 7.51482 78.3943 9.71218 74.374 15.9575C70.926 21.3135 71.288 28.3308 68.4506 34.0335C66.1058 38.7455 61.8146 42.1228 58.2484 45.9935C54.6818 49.8629 51.6318 54.9842 52.7208 60.1335C53.9162 65.7828 59.838 70.1122 59.336 75.8642C59.0276 79.3948 56.2156 82.2922 53.012 83.8068C49.8079 85.3215 46.2146 85.7295 42.7136 86.2828C37.5527 87.0975 32.3407 88.3108 27.8896 91.0482C23.4391 93.7855 19.8131 98.2762 19.2375 103.471C18.1943 112.877 24.7068 121.229 20.4194 129.668C17.4771 135.46 2.2719 142.875 1.09644 149.264" stroke="black" stroke-width="1.11833" stroke-miterlimit="10" stroke-linecap="round" stroke-linejoin="round"/>
<path d="M111.087 58.1469C109.087 60.0629 105.887 60.5975 103.373 59.4362" stroke="black" stroke-width="0.809432" stroke-miterlimit="10" stroke-linecap="round" stroke-linejoin="round"/>
<path d="M95.6104 66.7656C96.2708 67.8882 97.3854 68.6896 98.5879 69.1896C99.7906 69.6896 101.087 69.9149 102.376 70.1016" stroke="black" stroke-width="0.809432" stroke-miterlimit="10" stroke-linecap="round" stroke-linejoin="round"/>
<path d="M276.153 36.1762C271.341 39.9682 267.232 44.6495 264.093 49.9108C262.057 53.3255 260.395 57.1455 260.527 61.1188C260.657 65.0921 263.737 68.6335 267.536 69.8081C267.536 69.8081 267.153 73.3401 268.984 74.9655C271.048 76.8001 273.584 78.0441 276.223 77.9215C275.935 80.1695 276.617 83.3081 278.532 84.5215C280.445 85.7348 283.061 85.7295 284.972 84.5095" stroke="black" stroke-width="1.11833" stroke-miterlimit="10" stroke-linecap="round" stroke-linejoin="round"/>
<path d="M90.7369 50.7628C90.7369 55.9028 86.5697 60.0708 81.4292 60.0708C76.2885 60.0708 72.1213 55.9028 72.1213 50.7628C72.1213 45.6228 76.2885 41.4548 81.4292 41.4548C86.5697 41.4548 90.7369 45.6228 90.7369 50.7628Z" fill="#DB4222"/>
<path d="M105.669 38.8401C102.586 36.6228 100.271 35.9081 96.8901 37.2614C99.6521 39.2027 102.607 40.5134 105.669 38.8401Z" fill="#FBF6F1"/>
<path d="M99.5918 38.1442C99.5074 37.6508 99.4058 37.1415 99.3022 36.6361C101.054 36.4401 102.601 36.9055 104.315 37.9415C104.277 38.3255 104.247 38.7108 104.178 39.0921C104.157 39.2068 104.157 39.3188 104.147 39.4322C102.602 39.8122 101.09 39.5135 99.6214 38.8575C99.6413 38.6228 99.6329 38.3842 99.5918 38.1442Z" fill="#161616"/>
<path d="M96.9255 37.3454C100.644 35.4654 104.138 37.2214 105.801 38.6907C106.085 38.9427 106.317 39.1867 106.487 39.4014" stroke="#161616" stroke-width="0.537811" stroke-miterlimit="10" stroke-linecap="round" stroke-linejoin="round"/>
<path d="M111.331 38.9041C113.871 36.0801 115.98 34.8881 119.572 35.4907C117.288 37.9747 114.68 39.8854 111.331 38.9041Z" fill="#FBF6F1"/>
<path d="M117.121 36.9281C117.099 36.4281 117.089 35.9095 117.083 35.3935C115.329 35.5748 113.917 36.3601 112.463 37.7361C112.581 38.1041 112.693 38.4748 112.843 38.8321C112.887 38.9401 112.911 39.0495 112.945 39.1575C114.535 39.1988 115.949 38.5868 117.244 37.6321C117.175 37.4068 117.132 37.1708 117.121 36.9281Z" fill="#161616"/>
<path d="M119.555 35.58C115.521 34.5347 112.483 36.996 111.171 38.7867C110.947 39.0933 110.772 39.38 110.653 39.6267" stroke="#161616" stroke-width="0.537811" stroke-miterlimit="10" stroke-linecap="round" stroke-linejoin="round"/>
<path d="M107.348 44.4615L111.787 41.4548V45.6082" stroke="#161616" stroke-width="0.537811" stroke-miterlimit="10" stroke-linecap="round" stroke-linejoin="round"/>
<path d="M77.301 52.1948C77.3068 50.4521 78.174 48.7335 79.5724 47.6948C80.9702 46.6548 82.8666 46.3188 84.5364 46.8161C83.4322 47.4801 82.6281 48.6255 82.3765 49.8881C82.1254 51.1521 82.4302 52.5175 83.1958 53.5535" stroke="black" stroke-width="0.809432" stroke-miterlimit="10" stroke-linecap="round" stroke-linejoin="round"/>
<path d="M96.5625 35.2095C99.0417 33.9335 102.129 33.9148 104.624 35.1601" stroke="black" stroke-width="0.809432" stroke-miterlimit="10" stroke-linecap="round" stroke-linejoin="round"/>
<path d="M110.472 34.98C112.249 33.4986 114.655 32.7973 116.949 33.092" stroke="black" stroke-width="0.809432" stroke-miterlimit="10" stroke-linecap="round" stroke-linejoin="round"/>
<path d="M78.3214 145.953C78.0266 154.741 80.0203 163.417 81.9932 171.992C83.7839 179.784 85.5432 187.809 87.4047 195.824H28.6943C28.5011 193.312 28.3485 190.8 28.2365 188.277C27.7793 178.685 27.7793 169.073 28.2365 159.481C28.3585 156.908 28.5214 154.335 28.7042 151.761C29.437 141.732 31.0031 130.98 37.8793 123.647C45.6709 115.336 58.0803 113.659 69.4522 113.037C71.985 112.896 74.5984 112.773 76.9282 111.756C82.9396 109.141 85.1162 101.524 84.414 95.004C87.6896 99.1533 90.2932 105.581 89.073 110.729C88.3506 113.76 86.8454 116.537 85.4922 119.355C81.4646 127.685 78.6266 136.707 78.3214 145.953Z" fill="#F5B525"/>
<path d="M35.9861 117.809C44.7725 111.779 55.7422 109.489 66.3949 109.829C77.047 110.168 87.472 112.979 97.558 116.421" stroke="black" stroke-width="1.11833" stroke-miterlimit="10" stroke-linecap="round" stroke-linejoin="round"/>
<path d="M121.572 81.74C118.708 88.6133 114.099 94.336 106.985 97.436C99.8724 100.536 91.7026 100.852 84.175 98.9706" stroke="#FDFAEE" stroke-width="0.854515" stroke-miterlimit="10" stroke-linecap="round" stroke-linejoin="round"/>
<path d="M244.253 161.344C225.535 155.444 203.519 162.079 191.177 177.34" stroke="#FDFAEE" stroke-width="0.854515" stroke-miterlimit="10" stroke-linecap="round" stroke-linejoin="round"/>
<path d="M29.0027 174.968C46.7698 155.289 77.6563 146.436 101.62 160.307C107.789 163.879 113.127 168.891 117.047 174.847C123.632 173.299 132.671 174.568 138.117 178.579C143.564 182.591 147.125 189.06 147.6 195.808" stroke="#FDFAEE" stroke-width="1.06734" stroke-miterlimit="10"/>
<path d="M96.274 195.438C94.1182 179.975 90.6234 152.487 88.2546 137.014" stroke="black" stroke-width="1.11833" stroke-miterlimit="10" stroke-linecap="round" stroke-linejoin="round"/>
<path d="M136.219 88.5467C138.747 101.148 147.636 112.303 159.356 117.579C171.076 122.853 185.321 122.113 196.431 115.651" stroke="#FDFAEE" stroke-width="0.854515" stroke-miterlimit="10"/>
<path d="M270.425 68.168C270.999 66.4493 284.173 50.412 284.173 50.412" stroke="black" stroke-width="1.11833" stroke-miterlimit="10" stroke-linecap="round" stroke-linejoin="round"/>
<path d="M277.383 77.0828C277.751 76.2988 291.129 59.3268 291.129 59.3268" stroke="black" stroke-width="1.11833" stroke-miterlimit="10" stroke-linecap="round" stroke-linejoin="round"/>
<path d="M243.709 73.9746H199.361C195.02 73.9746 191.488 70.4426 191.488 66.1013V18.396C191.488 14.056 195.02 10.524 199.361 10.524H264.004C268.344 10.524 271.876 14.056 271.876 18.396V21.3306C272.26 20.8146 272.633 20.292 273.021 19.7773V18.396C273.021 13.4253 268.976 9.37998 264.004 9.37998H199.361C194.389 9.37998 190.344 13.4253 190.344 18.396V66.1013C190.344 71.0733 194.389 75.1187 199.361 75.1187H243.925C243.851 74.7373 243.779 74.356 243.709 73.9746Z" fill="#161616"/>
<path d="M243.709 73.9746H199.361C195.02 73.9746 191.488 70.4426 191.488 66.1013V18.396C191.488 14.056 195.02 10.524 199.361 10.524H264.004C268.344 10.524 271.876 14.056 271.876 18.396V21.3306C272.26 20.8146 272.633 20.292 273.021 19.7773V18.396C273.021 13.4253 268.976 9.37998 264.004 9.37998H199.361C194.389 9.37998 190.344 13.4253 190.344 18.396V66.1013C190.344 71.0733 194.389 75.1187 199.361 75.1187H243.925C243.851 74.7373 243.779 74.356 243.709 73.9746Z" stroke="#161616" stroke-width="0.50858" stroke-miterlimit="10" stroke-linecap="round" stroke-linejoin="round"/>
<path d="M216.225 115.004H142.899C136.747 115.004 131.759 110.016 131.759 103.865V50.3975C131.759 44.2468 136.747 39.2588 142.899 39.2588H216.225C222.377 39.2588 227.364 44.2468 227.364 50.3975V103.865C227.364 110.016 222.377 115.004 216.225 115.004Z" fill="#B8ADF9"/>
<path d="M226.192 90.4695C224.947 89.7455 224.907 89.7335 223.509 89.3575C223.151 89.2615 222.789 89.1868 222.427 89.1108C222.393 89.1042 222.029 89.0495 221.904 89.0268C221.248 88.9535 220.585 88.9202 219.925 88.9175C213.555 88.8908 207.401 91.7175 201.171 93.2868C197.424 94.2308 193.637 94.7855 190.12 92.8295C188.683 92.0295 187.392 90.9628 186.053 90.0135C183.769 88.3962 181.381 86.9388 178.905 85.6348C176.347 84.2868 174.291 83.3028 171.372 82.7788C171.195 82.7522 171.099 82.7361 171.076 82.7308C170.94 82.7161 170.804 82.7002 170.668 82.6868C170.369 82.6602 170.071 82.6388 169.772 82.6255C169.179 82.5988 168.585 82.6002 167.993 82.6295C167.555 82.6495 167.116 82.6895 166.68 82.7428C166.539 82.7668 166.183 82.8228 166.157 82.8282C165.868 82.8868 165.579 82.9415 165.289 83.0068C160.78 84.0362 156.769 86.6215 153.295 89.7495C149.06 93.5602 145.623 97.9268 142.536 102.645C140.335 106.011 138.321 109.456 136.521 112.99C138.328 114.255 140.524 115.004 142.897 115.004H216.225C222.377 115.004 227.364 110.016 227.364 103.865V91.2522C226.984 90.9762 226.597 90.7055 226.192 90.4695Z" fill="black"/>
<path d="M209.777 67.8348C209.777 74.8295 204.107 80.5015 197.111 80.5015C190.115 80.5015 184.444 74.8295 184.444 67.8348C184.444 60.8388 190.115 55.1681 197.111 55.1681C204.107 55.1681 209.777 60.8388 209.777 67.8348Z" fill="#F5B525"/>
<path d="M197.847 28.8535H184.96V15.9656H197.847V28.8535Z" fill="#FDFAEE"/>
<path d="M197.847 28.8535H184.96V15.9656H197.847V28.8535Z" stroke="#161616" stroke-width="1.45831" stroke-miterlimit="10" stroke-linecap="round" stroke-linejoin="round"/>
<path d="M267.727 11.0015C267.727 14.3762 264.991 17.1108 261.617 17.1108C258.243 17.1108 255.507 14.3762 255.507 11.0015C255.507 7.6282 258.243 4.89215 261.617 4.89215C264.991 4.89215 267.727 7.6282 267.727 11.0015Z" fill="#161616"/>
<path d="M267.727 11.0015C267.727 14.3762 264.991 17.1108 261.617 17.1108C258.243 17.1108 255.507 14.3762 255.507 11.0015C255.507 7.6282 258.243 4.89215 261.617 4.89215C264.991 4.89215 267.727 7.6282 267.727 11.0015Z" stroke="#161616" stroke-width="0.50858" stroke-miterlimit="10" stroke-linecap="round" stroke-linejoin="round"/>
<path d="M249.016 74.7721C249.016 76.8801 247.305 78.5908 245.197 78.5908C243.088 78.5908 241.379 76.8801 241.379 74.7721C241.379 72.6628 243.088 70.9535 245.197 70.9535C247.305 70.9535 249.016 72.6628 249.016 74.7721Z" fill="#161616"/>
<path d="M249.016 74.7721C249.016 76.8801 247.305 78.5908 245.197 78.5908C243.088 78.5908 241.379 76.8801 241.379 74.7721C241.379 72.6628 243.088 70.9535 245.197 70.9535C247.305 70.9535 249.016 72.6628 249.016 74.7721Z" stroke="#161616" stroke-width="0.50858" stroke-miterlimit="10" stroke-linecap="round" stroke-linejoin="round"/>
<path d="M273.293 61.4868C271.775 64.8028 268.516 66.5615 266.013 65.4148C263.511 64.2695 262.713 60.6521 264.232 57.3375C265.751 54.0215 269.009 52.2628 271.512 53.4095C274.013 54.5548 274.812 58.1722 273.293 61.4868Z" stroke="black" stroke-width="0.846553" stroke-miterlimit="10" stroke-linecap="round" stroke-linejoin="round"/>
<path d="M279.816 71.9694C278.573 74.6854 275.903 76.1254 273.853 75.1867C271.804 74.248 271.151 71.2854 272.395 68.5694C273.639 65.8547 276.308 64.4134 278.357 65.352C280.407 66.2907 281.06 69.2534 279.816 71.9694Z" stroke="black" stroke-width="0.693408" stroke-miterlimit="10" stroke-linecap="round" stroke-linejoin="round"/>
<path d="M287.721 78.8294C286.477 81.5441 283.808 82.9854 281.759 82.0467C279.708 81.108 279.056 78.1454 280.299 75.4294C281.543 72.7147 284.212 71.2734 286.263 72.212C288.312 73.1507 288.965 76.1134 287.721 78.8294Z" stroke="black" stroke-width="0.693408" stroke-miterlimit="10" stroke-linecap="round" stroke-linejoin="round"/>
<path d="M98.5645 139.687L94.7463 179.4" stroke="black" stroke-width="1.11833" stroke-miterlimit="10" stroke-linecap="round" stroke-linejoin="round"/>
<path d="M206.84 123.912C216.6 130.289 225.557 137.896 233.432 146.493" stroke="black" stroke-width="1.11833" stroke-miterlimit="10" stroke-linecap="round" stroke-linejoin="round"/>
<path d="M231.068 127.849C231.068 127.849 222.901 121.459 210.184 121.789" stroke="black" stroke-width="1.11833" stroke-miterlimit="10" stroke-linecap="round" stroke-linejoin="round"/>
<path d="M70.3079 55.6787L77.3011 52.1947" stroke="#FDFAEE" stroke-width="0.854515" stroke-miterlimit="10" stroke-linecap="round" stroke-linejoin="round"/>
<path d="M175.787 67.3602C175.66 67.2788 175.536 67.1948 175.419 67.0962C172.707 64.8148 169.173 63.5082 165.625 63.5508C162.344 63.5895 159.1 64.7828 156.529 66.8175C154.916 68.0948 154.82 70.5148 156.289 71.9562C158.295 73.9228 160.781 75.1162 163.803 75.3922C167.505 75.7308 171.392 74.3988 174.892 72.8708C175.18 72.7455 175.481 72.6775 175.787 72.6375V67.3602Z" fill="#FDFAEE"/>
<path d="M164.281 70.9308C164.281 72.6775 159.383 74.0935 153.341 74.0935C147.299 74.0935 142.401 72.6775 142.401 70.9308C142.401 69.1828 147.299 67.7668 153.341 67.7668C159.383 67.7668 164.281 69.1828 164.281 70.9308Z" fill="#FDFAEE"/>
<path d="M188.796 70.6669C188.796 72.4136 183.899 73.8296 177.857 73.8296C171.815 73.8296 166.917 72.4136 166.917 70.6669C166.917 68.9202 171.815 67.5042 177.857 67.5042C183.899 67.5042 188.796 68.9202 188.796 70.6669Z" fill="#FDFAEE"/>
<path d="M8.44385 195.82H314.309" stroke="#161616" stroke-width="1.45831" stroke-miterlimit="10" stroke-linecap="round" stroke-linejoin="round"/>
<path d="M155.723 14.7455C155.723 16.8201 154.041 18.5015 151.967 18.5015C149.892 18.5015 148.211 16.8201 148.211 14.7455C148.211 12.6708 149.892 10.9894 151.967 10.9894C154.041 10.9894 155.723 12.6708 155.723 14.7455Z" stroke="#161616" stroke-width="1.59377" stroke-miterlimit="10" stroke-linecap="round" stroke-linejoin="round"/>
<path d="M169.807 4.88672C169.807 6.18272 168.756 7.2334 167.46 7.2334C166.163 7.2334 165.112 6.18272 165.112 4.88672C165.112 3.58939 166.163 2.53874 167.46 2.53874C168.756 2.53874 169.807 3.58939 169.807 4.88672Z" stroke="#161616" stroke-width="1.59377" stroke-miterlimit="10" stroke-linecap="round" stroke-linejoin="round"/>
<path d="M308.777 100.663C308.777 101.959 307.725 103.011 306.429 103.011C305.133 103.011 304.081 101.959 304.081 100.663C304.081 99.3668 305.133 98.3147 306.429 98.3147C307.725 98.3147 308.777 99.3668 308.777 100.663Z" stroke="#161616" stroke-width="1.59377" stroke-miterlimit="10" stroke-linecap="round" stroke-linejoin="round"/>
<path d="M315.349 79.536C315.349 80.5733 314.509 81.4133 313.472 81.4133C312.435 81.4133 311.593 80.5733 311.593 79.536C311.593 78.4987 312.435 77.6573 313.472 77.6573C314.509 77.6573 315.349 78.4987 315.349 79.536Z" stroke="#161616" stroke-width="1.59377" stroke-miterlimit="10" stroke-linecap="round" stroke-linejoin="round"/>
<path d="M309.716 42.9148C309.716 43.9521 308.875 44.7935 307.837 44.7935C306.801 44.7935 305.96 43.9521 305.96 42.9148C305.96 41.8774 306.801 41.0374 307.837 41.0374C308.875 41.0374 309.716 41.8774 309.716 42.9148Z" stroke="#161616" stroke-width="1.59377" stroke-miterlimit="10" stroke-linecap="round" stroke-linejoin="round"/>
<path d="M307.837 159.349C307.837 160.905 306.576 162.167 305.021 162.167C303.465 162.167 302.204 160.905 302.204 159.349C302.204 157.793 303.465 156.532 305.021 156.532C306.576 156.532 307.837 157.793 307.837 159.349Z" stroke="#161616" stroke-width="1.59377" stroke-miterlimit="10" stroke-linecap="round" stroke-linejoin="round"/>
<path d="M10.1796 77.188C10.1796 79.0026 8.70829 80.4746 6.89309 80.4746C5.07802 80.4746 3.60669 79.0026 3.60669 77.188C3.60669 75.3733 5.07802 73.9013 6.89309 73.9013C8.70829 73.9013 10.1796 75.3733 10.1796 77.188Z" stroke="#161616" stroke-width="1.59377" stroke-miterlimit="10" stroke-linecap="round" stroke-linejoin="round"/>
<path d="M11.1189 49.9574C11.1189 51.2534 10.0678 52.3054 8.77141 52.3054C7.47461 52.3054 6.42407 51.2534 6.42407 49.9574C6.42407 48.6614 7.47461 47.6108 8.77141 47.6108C10.0678 47.6108 11.1189 48.6614 11.1189 49.9574Z" stroke="#161616" stroke-width="1.59377" stroke-miterlimit="10" stroke-linecap="round" stroke-linejoin="round"/>
<path d="M56.1901 3.47731C56.1901 4.51464 55.3489 5.35596 54.312 5.35596C53.275 5.35596 52.4338 4.51464 52.4338 3.47731C52.4338 2.43998 53.275 1.59997 54.312 1.59997C55.3489 1.59997 56.1901 2.43998 56.1901 3.47731Z" stroke="#161616" stroke-width="1.59377" stroke-miterlimit="10" stroke-linecap="round" stroke-linejoin="round"/>
</svg>
