<svg width="360" height="73" viewBox="0 0 360 73" fill="none" xmlns="http://www.w3.org/2000/svg">
<path d="M16.1 5.6L1.5 30.9C-0.500002 34.4 -0.500002 38.7 1.5 42.1L16.1 67.4C18.1 70.9 21.8 73 25.8 73L55 73C59 73 62.7 70.9 64.7 67.4L79.3 42.1C81.3 38.6 81.3 34.3 79.3 30.9L64.7 5.6C62.7 2.1 59 -2.47203e-06 55 -2.30444e-06L25.8 -1.08099e-06C21.8 -9.13396e-07 18.1 2.1 16.1 5.6Z" fill="#4F46E5"/>
<path d="M359.35 32.1259V63.6433H353.779V32.1259H359.35Z" fill="black"/>
<path d="M336.13 64.1203C334.632 64.1203 333.283 63.8536 332.083 63.3201C330.893 62.7763 329.949 61.9761 329.251 60.9193C328.564 59.8626 328.22 58.5596 328.22 57.0104C328.22 55.6767 328.466 54.5738 328.959 53.7017C329.451 52.8297 330.123 52.132 330.975 51.6088C331.826 51.0855 332.786 50.6905 333.853 50.4238C334.93 50.1468 336.043 49.9467 337.192 49.8236C338.577 49.68 339.701 49.5517 340.562 49.4389C341.424 49.3158 342.05 49.1311 342.44 48.8848C342.84 48.6284 343.04 48.2334 343.04 47.6999V47.6075C343.04 46.4482 342.696 45.5505 342.009 44.9144C341.322 44.2783 340.332 43.9602 339.039 43.9602C337.674 43.9602 336.592 44.2578 335.792 44.8528C335.002 45.4479 334.468 46.1507 334.191 46.9612L328.99 46.2225C329.4 44.7861 330.077 43.5858 331.021 42.6214C331.965 41.6467 333.119 40.9183 334.484 40.4361C335.848 39.9436 337.356 39.6974 339.008 39.6974C340.147 39.6974 341.281 39.8308 342.409 40.0975C343.538 40.3643 344.569 40.8054 345.502 41.421C346.436 42.0263 347.185 42.8522 347.749 43.8987C348.324 44.9452 348.611 46.2533 348.611 47.823V63.6433H343.256V60.3961H343.071C342.732 61.0527 342.255 61.6683 341.64 62.2428C341.034 62.8071 340.27 63.2637 339.347 63.6125C338.434 63.951 337.361 64.1203 336.13 64.1203ZM337.577 60.0268C338.695 60.0268 339.665 59.8062 340.486 59.365C341.306 58.9136 341.937 58.3185 342.378 57.5798C342.83 56.8412 343.056 56.0358 343.056 55.1637V52.3782C342.881 52.5219 342.584 52.6552 342.163 52.7784C341.753 52.9015 341.291 53.0092 340.778 53.1015C340.265 53.1939 339.757 53.276 339.254 53.3478C338.752 53.4196 338.316 53.4811 337.946 53.5324C337.115 53.6453 336.371 53.83 335.715 54.0865C335.058 54.3429 334.54 54.702 334.16 55.1637C333.781 55.6151 333.591 56.1999 333.591 56.9181C333.591 57.9441 333.966 58.7187 334.715 59.2419C335.463 59.7651 336.418 60.0268 337.577 60.0268Z" fill="black"/>
<path d="M325.102 40.0051V44.3142H311.514V40.0051H325.102ZM314.868 34.3419H320.439V56.5333C320.439 57.2823 320.552 57.8568 320.778 58.257C321.014 58.6468 321.322 58.9136 321.701 59.0572C322.081 59.2008 322.502 59.2727 322.963 59.2727C323.312 59.2727 323.63 59.247 323.917 59.1957C324.215 59.1444 324.441 59.0982 324.595 59.0572L325.533 63.4124C325.236 63.515 324.81 63.6278 324.256 63.751C323.712 63.8741 323.045 63.9459 322.255 63.9664C320.86 64.0075 319.603 63.7971 318.485 63.3355C317.367 62.8635 316.479 62.1351 315.823 61.1502C315.176 60.1652 314.858 58.9341 314.868 57.4567V34.3419Z" fill="black"/>
<path d="M302.433 63.6433V40.0052H308.003V63.6433H302.433ZM305.233 36.6503C304.351 36.6503 303.592 36.3579 302.956 35.7731C302.32 35.1781 302.002 34.465 302.002 33.634C302.002 32.7927 302.32 32.0797 302.956 31.4949C303.592 30.8998 304.351 30.6023 305.233 30.6023C306.126 30.6023 306.885 30.8998 307.511 31.4949C308.147 32.0797 308.465 32.7927 308.465 33.634C308.465 34.465 308.147 35.1781 307.511 35.7731C306.885 36.3579 306.126 36.6503 305.233 36.6503Z" fill="black"/>
<path d="M286.061 73C284.06 73 282.342 72.7281 280.905 72.1844C279.469 71.6509 278.315 70.9327 277.443 70.0299C276.571 69.127 275.965 68.1267 275.627 67.0289L280.644 65.8132C280.869 66.2748 281.198 66.7314 281.629 67.1828C282.059 67.6445 282.639 68.0241 283.368 68.3216C284.106 68.6294 285.035 68.7833 286.153 68.7833C287.733 68.7833 289.041 68.3986 290.077 67.6291C291.114 66.8699 291.632 65.6182 291.632 63.8741V59.3958H291.355C291.067 59.9703 290.647 60.5603 290.093 61.1656C289.549 61.7709 288.826 62.2787 287.923 62.6891C287.03 63.0995 285.907 63.3047 284.553 63.3047C282.737 63.3047 281.09 62.8789 279.613 62.0274C278.145 61.1656 276.976 59.8831 276.104 58.18C275.242 56.4667 274.811 54.3224 274.811 51.7473C274.811 49.1516 275.242 46.9612 276.104 45.176C276.976 43.3806 278.151 42.0212 279.628 41.0978C281.105 40.1642 282.752 39.6974 284.568 39.6974C285.953 39.6974 287.092 39.9334 287.984 40.4053C288.887 40.867 289.605 41.4261 290.139 42.0827C290.672 42.7291 291.078 43.3395 291.355 43.9141H291.662V40.0052H297.156V64.028C297.156 66.0491 296.674 67.7214 295.71 69.0449C294.745 70.3684 293.427 71.3585 291.755 72.0151C290.082 72.6717 288.184 73 286.061 73ZM286.107 58.9341C287.287 58.9341 288.292 58.6468 289.123 58.0723C289.954 57.4978 290.585 56.6719 291.016 55.5946C291.447 54.5174 291.662 53.2247 291.662 51.7165C291.662 50.2289 291.447 48.9259 291.016 47.8076C290.595 46.6893 289.97 45.8224 289.139 45.2068C288.318 44.581 287.307 44.268 286.107 44.268C284.865 44.268 283.829 44.5912 282.998 45.2376C282.167 45.8839 281.541 46.7714 281.121 47.8999C280.7 49.0182 280.49 50.2904 280.49 51.7165C280.49 53.1631 280.7 54.4302 281.121 55.5177C281.552 56.5949 282.183 57.4362 283.014 58.0415C283.855 58.6366 284.886 58.9341 286.107 58.9341Z" fill="black"/>
<path d="M264.914 63.6433V40.0052H270.485V63.6433H264.914ZM267.715 36.6503C266.833 36.6503 266.074 36.3579 265.438 35.7731C264.801 35.1781 264.483 34.465 264.483 33.634C264.483 32.7927 264.801 32.0797 265.438 31.4949C266.074 30.8998 266.833 30.6023 267.715 30.6023C268.608 30.6023 269.367 30.8998 269.993 31.4949C270.629 32.0797 270.947 32.7927 270.947 33.634C270.947 34.465 270.629 35.1781 269.993 35.7731C269.367 36.3579 268.608 36.6503 267.715 36.6503Z" fill="black"/>
<path d="M244.872 63.6433H234.192V32.1259H245.088C248.217 32.1259 250.905 32.7568 253.152 34.0187C255.409 35.2704 257.143 37.071 258.353 39.4204C259.564 41.7699 260.169 44.581 260.169 47.8538C260.169 51.1369 259.559 53.9583 258.338 56.318C257.127 58.6777 255.378 60.4885 253.09 61.7504C250.812 63.0123 248.073 63.6433 244.872 63.6433ZM239.901 58.7033H244.595C246.791 58.7033 248.622 58.3032 250.089 57.5029C251.556 56.6924 252.659 55.4869 253.398 53.8864C254.136 52.2757 254.506 50.2648 254.506 47.8538C254.506 45.4428 254.136 43.4422 253.398 41.8519C252.659 40.2514 251.566 39.0562 250.12 38.2662C248.684 37.466 246.898 37.0658 244.764 37.0658H239.901V58.7033Z" fill="black"/>
<path d="M208.008 64.1049C205.699 64.1049 203.699 63.5971 202.006 62.5814C200.313 61.5657 199 60.1447 198.066 58.3185C197.143 56.4923 196.681 54.3583 196.681 51.9166C196.681 49.4748 197.143 47.3356 198.066 45.4992C199 43.6627 200.313 42.2366 202.006 41.2209C203.699 40.2052 205.699 39.6974 208.008 39.6974C210.316 39.6974 212.317 40.2052 214.01 41.2209C215.703 42.2366 217.011 43.6627 217.934 45.4992C218.868 47.3356 219.334 49.4748 219.334 51.9166C219.334 54.3583 218.868 56.4923 217.934 58.3185C217.011 60.1447 215.703 61.5657 214.01 62.5814C212.317 63.5971 210.316 64.1049 208.008 64.1049ZM208.039 59.642C209.29 59.642 210.337 59.2983 211.178 58.6109C212.019 57.9133 212.645 56.9797 213.056 55.8101C213.476 54.6405 213.687 53.3375 213.687 51.9012C213.687 50.4546 213.476 49.1465 213.056 47.9769C212.645 46.797 212.019 45.8583 211.178 45.1606C210.337 44.463 209.29 44.1141 208.039 44.1141C206.756 44.1141 205.689 44.463 204.838 45.1606C203.996 45.8583 203.365 46.797 202.945 47.9769C202.534 49.1465 202.329 50.4546 202.329 51.9012C202.329 53.3375 202.534 54.6405 202.945 55.8101C203.365 56.9797 203.996 57.9133 204.838 58.6109C205.689 59.2983 206.756 59.642 208.039 59.642Z" fill="black"/>
<path d="M181.922 63.6433V40.0053H187.323V43.9449H187.569C188 42.5804 188.739 41.5288 189.786 40.7901C190.842 40.0412 192.048 39.6667 193.402 39.6667C193.71 39.6667 194.053 39.6821 194.433 39.7129C194.823 39.7334 195.146 39.7693 195.403 39.8206V44.9452C195.167 44.8632 194.792 44.7914 194.279 44.7298C193.776 44.658 193.289 44.6221 192.817 44.6221C191.802 44.6221 190.888 44.8426 190.078 45.2838C189.278 45.7147 188.647 46.3149 188.185 47.0844C187.723 47.8538 187.492 48.7413 187.492 49.7467V63.6433H181.922Z" fill="black"/>
<path d="M171.055 53.7017V40.0052H176.626V63.6433H171.225V59.442H170.978C170.445 60.7655 169.568 61.8478 168.347 62.6891C167.136 63.5304 165.643 63.9511 163.868 63.9511C162.319 63.9511 160.95 63.6074 159.759 62.92C158.58 62.2223 157.656 61.2118 156.989 59.8883C156.322 58.5545 155.989 56.9438 155.989 55.056V40.0052H161.56V54.1942C161.56 55.6921 161.97 56.8822 162.791 57.7645C163.612 58.6469 164.689 59.088 166.023 59.088C166.844 59.088 167.639 58.888 168.408 58.4878C169.178 58.0877 169.809 57.4927 170.301 56.7027C170.804 55.9024 171.055 54.9021 171.055 53.7017Z" fill="black"/>
<path d="M151.763 40.0051V44.3142H138.174V40.0051H151.763ZM141.529 34.3419H147.1V56.5333C147.1 57.2823 147.213 57.8568 147.439 58.257C147.675 58.6468 147.983 58.9136 148.362 59.0572C148.742 59.2008 149.162 59.2727 149.624 59.2727C149.973 59.2727 150.291 59.247 150.578 59.1957C150.876 59.1444 151.102 59.0982 151.255 59.0572L152.194 63.4124C151.897 63.515 151.471 63.6278 150.917 63.751C150.373 63.8741 149.706 63.9459 148.916 63.9664C147.521 64.0075 146.264 63.7971 145.146 63.3355C144.028 62.8635 143.14 62.1351 142.483 61.1502C141.837 60.1652 141.519 58.9341 141.529 57.4567V34.3419Z" fill="black"/>
<path d="M129.093 53.7017V40.0052H134.664V63.6433H129.263V59.442H129.016C128.483 60.7655 127.606 61.8478 126.385 62.6891C125.174 63.5304 123.681 63.9511 121.906 63.9511C120.357 63.9511 118.988 63.6074 117.798 62.92C116.618 62.2223 115.694 61.2118 115.027 59.8883C114.361 58.5545 114.027 56.9438 114.027 55.056V40.0052H119.598V54.1942C119.598 55.6921 120.008 56.8822 120.829 57.7645C121.65 58.6469 122.727 59.088 124.061 59.088C124.882 59.088 125.677 58.888 126.446 58.4878C127.216 58.0877 127.847 57.4927 128.339 56.7027C128.842 55.9024 129.093 54.9021 129.093 53.7017Z" fill="black"/>
<path d="M90.7955 63.6433V32.1259H110.986V36.912H96.5049V45.4684H109.601V50.2545H96.5049V63.6433H90.7955Z" fill="black"/>
<path d="M256.388 6.50989V22.8265H254.508V6.50989H256.388Z" fill="#4F4F4F"/>
<path d="M245.691 23.1133C244.916 23.1133 244.212 22.9672 243.58 22.6751C242.948 22.3776 242.446 21.9501 242.074 21.3924C241.702 20.8294 241.517 20.1495 241.517 19.3528C241.517 18.6517 241.655 18.0834 241.931 17.6479C242.207 17.207 242.576 16.8618 243.038 16.6121C243.5 16.3625 244.01 16.1766 244.568 16.0544C245.131 15.927 245.697 15.8261 246.265 15.7517C247.009 15.6561 247.611 15.5844 248.073 15.5366C248.541 15.4835 248.881 15.3958 249.093 15.2737C249.311 15.1515 249.42 14.9391 249.42 14.6363V14.5726C249.42 13.7865 249.205 13.1757 248.775 12.7401C248.35 12.3046 247.704 12.0868 246.839 12.0868C245.941 12.0868 245.237 12.2834 244.727 12.6764C244.217 13.0694 243.859 13.489 243.652 13.9352L241.867 13.2978C242.186 12.5542 242.611 11.9753 243.142 11.561C243.678 11.1414 244.263 10.8493 244.895 10.6846C245.532 10.5147 246.159 10.4297 246.775 10.4297C247.168 10.4297 247.619 10.4775 248.129 10.5731C248.644 10.6634 249.141 10.8519 249.619 11.1388C250.102 11.4256 250.503 11.8585 250.822 12.4374C251.141 13.0163 251.3 13.7918 251.3 14.7638V22.8265H249.42V21.1693H249.324C249.197 21.4349 248.984 21.719 248.687 22.0218C248.389 22.3245 247.994 22.5821 247.5 22.7946C247.006 23.007 246.403 23.1133 245.691 23.1133ZM245.978 21.4243C246.722 21.4243 247.348 21.2782 247.858 20.9861C248.374 20.6939 248.761 20.3168 249.022 19.8547C249.287 19.3927 249.42 18.9067 249.42 18.3968V16.6759C249.34 16.7715 249.165 16.8591 248.894 16.9388C248.629 17.0131 248.32 17.0795 247.97 17.138C247.625 17.1911 247.287 17.2389 246.958 17.2814C246.634 17.3186 246.371 17.3504 246.169 17.377C245.681 17.4407 245.224 17.5443 244.799 17.6877C244.379 17.8258 244.039 18.0356 243.779 18.3171C243.524 18.5933 243.397 18.9704 243.397 19.4484C243.397 20.1017 243.638 20.5957 244.122 20.9303C244.61 21.2596 245.229 21.4243 245.978 21.4243Z" fill="#4F4F4F"/>
<path d="M236.991 22.8265V10.589H238.871V22.8265H236.991ZM237.947 8.54947C237.58 8.54947 237.264 8.42465 236.999 8.17501C236.738 7.92538 236.608 7.62528 236.608 7.27473C236.608 6.92418 236.738 6.62409 236.999 6.37445C237.264 6.12482 237.58 6 237.947 6C238.313 6 238.626 6.12482 238.887 6.37445C239.152 6.62409 239.285 6.92418 239.285 7.27473C239.285 7.62528 239.152 7.92538 238.887 8.17501C238.626 8.42465 238.313 8.54947 237.947 8.54947Z" fill="#4F4F4F"/>
<path d="M229.654 23.0814C228.507 23.0814 227.519 22.8105 226.69 22.2688C225.862 21.727 225.224 20.9808 224.778 20.03C224.332 19.0793 224.109 17.9931 224.109 16.7715C224.109 15.5286 224.337 14.4318 224.794 13.4811C225.256 12.525 225.899 11.7788 226.722 11.2423C227.551 10.7006 228.517 10.4297 229.622 10.4297C230.483 10.4297 231.258 10.589 231.949 10.9077C232.639 11.2264 233.205 11.6726 233.646 12.2462C234.086 12.8198 234.36 13.489 234.466 14.2539H232.586C232.443 13.6962 232.124 13.2022 231.63 12.772C231.141 12.3365 230.483 12.1187 229.654 12.1187C228.921 12.1187 228.278 12.3099 227.726 12.6923C227.179 13.0694 226.751 13.6032 226.443 14.2937C226.141 14.9789 225.989 15.7836 225.989 16.7077C225.989 17.6532 226.138 18.4764 226.435 19.1775C226.738 19.8786 227.163 20.4231 227.71 20.8108C228.263 21.1985 228.911 21.3924 229.654 21.3924C230.143 21.3924 230.586 21.3074 230.985 21.1374C231.383 20.9675 231.72 20.7232 231.996 20.4045C232.273 20.0858 232.469 19.7034 232.586 19.2572H234.466C234.36 19.9796 234.097 20.6302 233.678 21.2091C233.263 21.7828 232.713 22.2396 232.028 22.5795C231.348 22.9141 230.557 23.0814 229.654 23.0814Z" fill="#4F4F4F"/>
<path d="M216.492 23.0814C215.387 23.0814 214.418 22.8185 213.584 22.2927C212.755 21.7668 212.107 21.0312 211.64 20.0858C211.178 19.1404 210.947 18.0356 210.947 16.7715C210.947 15.4968 211.178 14.384 211.64 13.4333C212.107 12.4825 212.755 11.7443 213.584 11.2184C214.418 10.6926 215.387 10.4297 216.492 10.4297C217.597 10.4297 218.563 10.6926 219.392 11.2184C220.226 11.7443 220.874 12.4825 221.336 13.4333C221.803 14.384 222.037 15.4968 222.037 16.7715C222.037 18.0356 221.803 19.1404 221.336 20.0858C220.874 21.0312 220.226 21.7668 219.392 22.2927C218.563 22.8185 217.597 23.0814 216.492 23.0814ZM216.492 21.3924C217.331 21.3924 218.021 21.1773 218.563 20.7471C219.105 20.3168 219.506 19.7512 219.766 19.0501C220.027 18.349 220.157 17.5894 220.157 16.7715C220.157 15.9535 220.027 15.1913 219.766 14.4849C219.506 13.7785 219.105 13.2075 218.563 12.772C218.021 12.3365 217.331 12.1187 216.492 12.1187C215.653 12.1187 214.962 12.3365 214.42 12.772C213.879 13.2075 213.478 13.7785 213.217 14.4849C212.957 15.1913 212.827 15.9535 212.827 16.7715C212.827 17.5894 212.957 18.349 213.217 19.0501C213.478 19.7512 213.879 20.3168 214.42 20.7471C214.962 21.1773 215.653 21.3924 216.492 21.3924Z" fill="#4F4F4F"/>
<path d="M206.616 10.5891C206.52 9.78176 206.133 9.15501 205.453 8.70886C204.773 8.2627 203.939 8.03962 202.951 8.03962C202.229 8.03962 201.597 8.15647 201.055 8.39017C200.518 8.62388 200.099 8.94521 199.796 9.35419C199.499 9.76317 199.35 10.2279 199.35 10.7484C199.35 11.184 199.453 11.5584 199.661 11.8718C199.873 12.1798 200.144 12.4375 200.473 12.6446C200.803 12.8464 201.148 13.0137 201.509 13.1465C201.87 13.274 202.202 13.3776 202.505 13.4572L204.162 13.9034C204.587 14.0149 205.06 14.169 205.58 14.3655C206.106 14.562 206.608 14.8302 207.086 15.1702C207.569 15.5048 207.968 15.935 208.281 16.4608C208.594 16.9867 208.751 17.632 208.751 18.3968C208.751 19.2785 208.52 20.0752 208.058 20.7869C207.601 21.4987 206.932 22.0643 206.05 22.4839C205.174 22.9035 204.109 23.1133 202.855 23.1133C201.687 23.1133 200.675 22.9248 199.82 22.5477C198.97 22.1706 198.301 21.6447 197.812 20.9702C197.329 20.2956 197.055 19.5122 196.992 18.6199H199.031C199.084 19.236 199.291 19.7459 199.653 20.1496C200.019 20.5479 200.481 20.8454 201.039 21.0419C201.602 21.2331 202.207 21.3287 202.855 21.3287C203.61 21.3287 204.287 21.2065 204.887 20.9622C205.487 20.7126 205.963 20.3674 206.313 19.9265C206.664 19.4803 206.839 18.9598 206.839 18.365C206.839 17.8232 206.688 17.3824 206.385 17.0424C206.082 16.7025 205.684 16.4263 205.19 16.2138C204.696 16.0014 204.162 15.8155 203.588 15.6562L201.581 15.0825C200.306 14.716 199.297 14.1929 198.553 13.513C197.81 12.8331 197.438 11.9435 197.438 10.844C197.438 9.93048 197.685 9.13377 198.179 8.45391C198.678 7.76874 199.347 7.2376 200.186 6.86049C201.031 6.47807 201.974 6.28687 203.015 6.28687C204.066 6.28687 205.001 6.47542 205.819 6.85253C206.637 7.22432 207.285 7.73422 207.763 8.38221C208.246 9.0302 208.501 9.76582 208.528 10.5891H206.616Z" fill="#4F4F4F"/>
<path d="M182.536 23.1133C181.76 23.1133 181.057 22.9672 180.425 22.6751C179.793 22.3776 179.291 21.9501 178.919 21.3924C178.547 20.8294 178.361 20.1495 178.361 19.3528C178.361 18.6517 178.499 18.0834 178.775 17.6479C179.052 17.207 179.421 16.8618 179.883 16.6121C180.345 16.3625 180.855 16.1766 181.413 16.0544C181.976 15.927 182.541 15.8261 183.11 15.7517C183.853 15.6561 184.456 15.5844 184.918 15.5366C185.386 15.4835 185.725 15.3958 185.938 15.2737C186.156 15.1515 186.265 14.9391 186.265 14.6363V14.5726C186.265 13.7865 186.049 13.1757 185.619 12.7401C185.194 12.3046 184.549 12.0868 183.683 12.0868C182.786 12.0868 182.082 12.2834 181.572 12.6764C181.062 13.0694 180.704 13.489 180.496 13.9352L178.712 13.2978C179.03 12.5542 179.455 11.9753 179.986 11.561C180.523 11.1414 181.107 10.8493 181.739 10.6846C182.377 10.5147 183.003 10.4297 183.619 10.4297C184.013 10.4297 184.464 10.4775 184.974 10.5731C185.489 10.6634 185.986 10.8519 186.464 11.1388C186.947 11.4256 187.348 11.8585 187.667 12.4374C187.985 13.0163 188.145 13.7918 188.145 14.7638V22.8265H186.265V21.1693H186.169C186.041 21.4349 185.829 21.719 185.532 22.0218C185.234 22.3245 184.838 22.5821 184.344 22.7946C183.851 23.007 183.248 23.1133 182.536 23.1133ZM182.823 21.4243C183.566 21.4243 184.193 21.2782 184.703 20.9861C185.218 20.6939 185.606 20.3168 185.866 19.8547C186.132 19.3927 186.265 18.9067 186.265 18.3968V16.6759C186.185 16.7715 186.01 16.8591 185.739 16.9388C185.473 17.0131 185.165 17.0795 184.815 17.138C184.469 17.1911 184.132 17.2389 183.803 17.2814C183.479 17.3186 183.216 17.3504 183.014 17.377C182.525 17.4407 182.069 17.5443 181.644 17.6877C181.224 17.8258 180.884 18.0356 180.624 18.3171C180.369 18.5933 180.241 18.9704 180.241 19.4484C180.241 20.1017 180.483 20.5957 180.966 20.9303C181.455 21.2596 182.074 21.4243 182.823 21.4243Z" fill="#4F4F4F"/>
<path d="M159.66 22.8265V10.589H161.476V12.5011H161.636C161.891 11.8478 162.302 11.3406 162.87 10.9794C163.439 10.6129 164.121 10.4297 164.918 10.4297C165.725 10.4297 166.397 10.6129 166.934 10.9794C167.475 11.3406 167.898 11.8478 168.2 12.5011H168.328C168.641 11.8691 169.111 11.3671 169.738 10.9954C170.365 10.6182 171.116 10.4297 171.993 10.4297C173.087 10.4297 173.982 10.7723 174.678 11.4574C175.373 12.1373 175.721 13.1969 175.721 14.6363V22.8265H173.841V14.6363C173.841 13.7334 173.594 13.088 173.1 12.7003C172.606 12.3126 172.025 12.1187 171.355 12.1187C170.495 12.1187 169.828 12.379 169.356 12.8995C168.883 13.4147 168.647 14.068 168.647 14.8594V22.8265H166.735V14.4451C166.735 13.7493 166.509 13.189 166.057 12.764C165.606 12.3338 165.024 12.1187 164.313 12.1187C163.824 12.1187 163.367 12.2488 162.942 12.5091C162.523 12.7694 162.183 13.1305 161.922 13.5926C161.667 14.0494 161.54 14.5779 161.54 15.1781V22.8265H159.66Z" fill="#4F4F4F"/>
<path d="M150.843 23.1133C150.068 23.1133 149.364 22.9672 148.732 22.6751C148.1 22.3776 147.598 21.9501 147.226 21.3924C146.855 20.8294 146.669 20.1495 146.669 19.3528C146.669 18.6517 146.807 18.0834 147.083 17.6479C147.359 17.207 147.728 16.8618 148.19 16.6121C148.653 16.3625 149.162 16.1766 149.72 16.0544C150.283 15.927 150.849 15.8261 151.417 15.7517C152.161 15.6561 152.764 15.5844 153.226 15.5366C153.693 15.4835 154.033 15.3958 154.245 15.2737C154.463 15.1515 154.572 14.9391 154.572 14.6363V14.5726C154.572 13.7865 154.357 13.1757 153.927 12.7401C153.502 12.3046 152.856 12.0868 151.991 12.0868C151.093 12.0868 150.389 12.2834 149.879 12.6764C149.37 13.0694 149.011 13.489 148.804 13.9352L147.019 13.2978C147.338 12.5542 147.763 11.9753 148.294 11.561C148.83 11.1414 149.415 10.8493 150.047 10.6846C150.684 10.5147 151.311 10.4297 151.927 10.4297C152.32 10.4297 152.771 10.4775 153.281 10.5731C153.797 10.6634 154.293 10.8519 154.771 11.1388C155.255 11.4256 155.656 11.8585 155.974 12.4374C156.293 13.0163 156.452 13.7918 156.452 14.7638V22.8265H154.572V21.1693H154.476C154.349 21.4349 154.137 21.719 153.839 22.0218C153.542 22.3245 153.146 22.5821 152.652 22.7946C152.158 23.007 151.555 23.1133 150.843 23.1133ZM151.13 21.4243C151.874 21.4243 152.501 21.2782 153.011 20.9861C153.526 20.6939 153.913 20.3168 154.174 19.8547C154.439 19.3927 154.572 18.9067 154.572 18.3968V16.6759C154.492 16.7715 154.317 16.8591 154.046 16.9388C153.781 17.0131 153.473 17.0795 153.122 17.138C152.777 17.1911 152.44 17.2389 152.11 17.2814C151.786 17.3186 151.523 17.3504 151.321 17.377C150.833 17.4407 150.376 17.5443 149.951 17.6877C149.532 17.8258 149.192 18.0356 148.931 18.3171C148.676 18.5933 148.549 18.9704 148.549 19.4484C148.549 20.1017 148.791 20.5957 149.274 20.9303C149.763 21.2596 150.381 21.4243 151.13 21.4243Z" fill="#4F4F4F"/>
<path d="M139.119 22.8265V10.589H140.936V12.4374H141.063C141.286 11.8319 141.69 11.3406 142.274 10.9635C142.858 10.5864 143.517 10.3978 144.25 10.3978C144.388 10.3978 144.561 10.4005 144.768 10.4058C144.975 10.4111 145.132 10.4191 145.238 10.4297V12.3418C145.174 12.3259 145.028 12.302 144.8 12.2701C144.577 12.2329 144.34 12.2143 144.091 12.2143C143.496 12.2143 142.965 12.3391 142.497 12.5888C142.035 12.8331 141.669 13.173 141.398 13.6086C141.132 14.0388 140.999 14.5301 140.999 15.0825V22.8265H139.119Z" fill="#4F4F4F"/>
<path d="M130.612 27.6704C129.703 27.6704 128.923 27.5536 128.269 27.3199C127.616 27.0915 127.072 26.7888 126.636 26.4116C126.206 26.0399 125.863 25.6415 125.608 25.2166L127.106 24.1649C127.276 24.388 127.491 24.643 127.751 24.9298C128.012 25.2219 128.368 25.4742 128.819 25.6866C129.276 25.9044 129.873 26.0133 130.612 26.0133C131.6 26.0133 132.415 25.7743 133.058 25.2963C133.7 24.8182 134.022 24.0693 134.022 23.0495V20.5638H133.862C133.724 20.7869 133.528 21.0631 133.273 21.3924C133.023 21.7164 132.662 22.0059 132.189 22.2608C131.722 22.5104 131.09 22.6353 130.293 22.6353C129.305 22.6353 128.418 22.4016 127.632 21.9342C126.851 21.4667 126.232 20.7869 125.776 19.8946C125.324 19.0023 125.098 17.9187 125.098 16.644C125.098 15.3905 125.319 14.299 125.76 13.3695C126.201 12.4347 126.814 11.7124 127.6 11.2025C128.386 10.6873 129.294 10.4297 130.325 10.4297C131.122 10.4297 131.754 10.5625 132.221 10.828C132.694 11.0883 133.055 11.3857 133.304 11.7204C133.559 12.0497 133.756 12.3205 133.894 12.533H134.085V10.589H135.902V23.177C135.902 24.2287 135.663 25.0838 135.185 25.7424C134.712 26.4063 134.075 26.8923 133.273 27.2004C132.476 27.5138 131.589 27.6704 130.612 27.6704ZM130.548 20.9462C131.302 20.9462 131.939 20.7736 132.46 20.4284C132.981 20.0831 133.376 19.5865 133.647 18.9385C133.918 18.2905 134.053 17.5151 134.053 16.6121C134.053 15.7305 133.921 14.9523 133.655 14.2778C133.389 13.6032 132.996 13.0748 132.476 12.6923C131.955 12.3099 131.313 12.1187 130.548 12.1187C129.751 12.1187 129.087 12.3205 128.556 12.7242C128.03 13.1279 127.635 13.6696 127.369 14.3495C127.109 15.0293 126.979 15.7836 126.979 16.6121C126.979 17.462 127.111 18.2135 127.377 18.8668C127.648 19.5148 128.046 20.0247 128.572 20.3965C129.103 20.763 129.762 20.9462 130.548 20.9462Z" fill="#4F4F4F"/>
<path d="M117.481 23.0814C116.376 23.0814 115.407 22.8185 114.573 22.2927C113.745 21.7668 113.097 21.0312 112.629 20.0858C112.167 19.1404 111.936 18.0356 111.936 16.7715C111.936 15.4968 112.167 14.384 112.629 13.4333C113.097 12.4825 113.745 11.7443 114.573 11.2184C115.407 10.6926 116.376 10.4297 117.481 10.4297C118.586 10.4297 119.553 10.6926 120.381 11.2184C121.215 11.7443 121.863 12.4825 122.325 13.4333C122.793 14.384 123.026 15.4968 123.026 16.7715C123.026 18.0356 122.793 19.1404 122.325 20.0858C121.863 21.0312 121.215 21.7668 120.381 22.2927C119.553 22.8185 118.586 23.0814 117.481 23.0814ZM117.481 21.3924C118.32 21.3924 119.011 21.1773 119.553 20.7471C120.094 20.3168 120.495 19.7512 120.756 19.0501C121.016 18.349 121.146 17.5894 121.146 16.7715C121.146 15.9535 121.016 15.1913 120.756 14.4849C120.495 13.7785 120.094 13.2075 119.553 12.772C119.011 12.3365 118.32 12.1187 117.481 12.1187C116.642 12.1187 115.951 12.3365 115.41 12.772C114.868 13.2075 114.467 13.7785 114.207 14.4849C113.946 15.1913 113.816 15.9535 113.816 16.7715C113.816 17.5894 113.946 18.349 114.207 19.0501C114.467 19.7512 114.868 20.3168 115.41 20.7471C115.951 21.1773 116.642 21.3924 117.481 21.3924Z" fill="#4F4F4F"/>
<path d="M104.759 22.8265V10.589H106.576V12.4374H106.703C106.926 11.8319 107.33 11.3406 107.914 10.9635C108.498 10.5864 109.157 10.3978 109.89 10.3978C110.028 10.3978 110.201 10.4005 110.408 10.4058C110.615 10.4111 110.772 10.4191 110.878 10.4297V12.3418C110.814 12.3259 110.668 12.302 110.44 12.2701C110.216 12.2329 109.98 12.2143 109.73 12.2143C109.136 12.2143 108.604 12.3391 108.137 12.5888C107.675 12.8331 107.308 13.173 107.038 13.6086C106.772 14.0388 106.639 14.5301 106.639 15.0825V22.8265H104.759Z" fill="#4F4F4F"/>
<path d="M90.9972 22.8265V6.50989H96.5104C97.7904 6.50989 98.8368 6.74093 99.6494 7.20302C100.467 7.6598 101.073 8.27858 101.466 9.05935C101.859 9.84013 102.055 10.7112 102.055 11.6726C102.055 12.6339 101.859 13.5076 101.466 14.2937C101.078 15.0798 100.478 15.7066 99.6653 16.174C98.8527 16.636 97.8117 16.8671 96.5422 16.8671H92.5906V15.1143H96.4785C97.3549 15.1143 98.0587 14.963 98.5898 14.6602C99.1209 14.3575 99.506 13.9485 99.745 13.4333C99.9893 12.9128 100.112 12.3259 100.112 11.6726C100.112 11.0193 99.9893 10.435 99.745 9.9198C99.506 9.40459 99.1183 9.00093 98.5818 8.7088C98.0454 8.41136 97.3336 8.26265 96.4466 8.26265H92.973V22.8265H90.9972Z" fill="#4F4F4F"/>
<path fill-rule="evenodd" clip-rule="evenodd" d="M30.7213 31.6393C32.7584 31.6393 34.4098 29.9879 34.4098 27.9508C34.4098 25.9137 32.7584 24.2623 30.7213 24.2623C28.6842 24.2623 27.0328 25.9137 27.0328 27.9508C27.0328 29.9879 28.6842 31.6393 30.7213 31.6393ZM30.7213 36.5574C35.4746 36.5574 39.3279 32.7041 39.3279 27.9508C39.3279 23.1975 35.4746 19.3442 30.7213 19.3442C25.968 19.3442 22.1148 23.1975 22.1148 27.9508C22.1148 32.7041 25.968 36.5574 30.7213 36.5574Z" fill="white"/>
<path fill-rule="evenodd" clip-rule="evenodd" d="M50.3934 48.8525C52.4306 48.8525 54.082 47.201 54.082 45.1639C54.082 43.1268 52.4306 41.4754 50.3934 41.4754C48.3563 41.4754 46.7049 43.1268 46.7049 45.1639C46.7049 47.201 48.3563 48.8525 50.3934 48.8525ZM50.3934 53.7705C55.1467 53.7705 59 49.9172 59 45.1639C59 40.4107 55.1467 36.5574 50.3934 36.5574C45.6402 36.5574 41.7869 40.4107 41.7869 45.1639C41.7869 49.9172 45.6402 53.7705 50.3934 53.7705Z" fill="white"/>
<path fill-rule="evenodd" clip-rule="evenodd" d="M22.1148 45.1639C22.1148 43.8058 23.2157 42.7049 24.5738 42.7049H44.2459C45.604 42.7049 46.7049 43.8058 46.7049 45.1639C46.7049 46.522 45.604 47.6229 44.2459 47.6229H24.5738C23.2157 47.6229 22.1148 46.522 22.1148 45.1639Z" fill="white"/>
<path fill-rule="evenodd" clip-rule="evenodd" d="M34.4098 27.9508C34.4098 26.5928 35.5108 25.4918 36.8689 25.4918H56.541C57.8991 25.4918 59 26.5928 59 27.9508C59 29.3089 57.8991 30.4099 56.541 30.4099H36.8689C35.5108 30.4099 34.4098 29.3089 34.4098 27.9508Z" fill="white"/>
<path fill-rule="evenodd" clip-rule="evenodd" d="M46.8104 18.2202C47.7707 17.2599 49.3277 17.2599 50.288 18.2202L58.2798 26.212C59.2401 27.1723 59.2401 28.7293 58.2798 29.6896C57.3195 30.6499 55.7625 30.6499 54.8022 29.6896L46.8104 21.6978C45.8501 20.7375 45.8501 19.1805 46.8104 18.2202ZM22.2202 43.4251C23.1805 42.4648 24.7375 42.4648 25.6978 43.4251L33.0749 50.8022C34.0352 51.7625 34.0352 53.3195 33.0749 54.2798C32.1145 55.2401 30.5576 55.2401 29.5973 54.2798L22.2202 46.9027C21.2599 45.9424 21.2599 44.3855 22.2202 43.4251Z" fill="white"/>
</svg>
